<?xml version="1.0" encoding="UTF-8" standalone="no"?>
<!-- Created with Inkscape (http://www.inkscape.org/) -->

<svg
   width="65"
   height="22"
   id="svg3012"
   version="1.1"
   inkscape:version="1.1.2 (0a00cf5339, 2022-02-04)"
   sodipodi:docname="toggle-off-us.svg"
   xmlns:inkscape="http://www.inkscape.org/namespaces/inkscape"
   xmlns:sodipodi="http://sodipodi.sourceforge.net/DTD/sodipodi-0.dtd"
   xmlns="http://www.w3.org/2000/svg"
   xmlns:svg="http://www.w3.org/2000/svg"
   xmlns:rdf="http://www.w3.org/1999/02/22-rdf-syntax-ns#"
   xmlns:cc="http://creativecommons.org/ns#"
   xmlns:dc="http://purl.org/dc/elements/1.1/">
  <defs
     id="defs3014">
    <inkscape:perspective
       sodipodi:type="inkscape:persp3d"
       inkscape:vp_x="0 : 526.18109 : 1"
       inkscape:vp_y="0 : 1000 : 0"
       inkscape:vp_z="744.09448 : 526.18109 : 1"
       inkscape:persp3d-origin="372.04724 : 350.78739 : 1"
       id="perspective3020" />
    <inkscape:perspective
       id="perspective2997"
       inkscape:persp3d-origin="0.5 : 0.33333333 : 1"
       inkscape:vp_z="1 : 0.5 : 1"
       inkscape:vp_y="0 : 1000 : 0"
       inkscape:vp_x="0 : 0.5 : 1"
       sodipodi:type="inkscape:persp3d" />
  </defs>
  <sodipodi:namedview
     id="base"
     pagecolor="#ffffff"
     bordercolor="#666666"
     borderopacity="1.0"
     inkscape:pageopacity="0.0"
     inkscape:pageshadow="2"
     inkscape:zoom="7.919596"
     inkscape:cx="32.893092"
     inkscape:cy="-0.25253813"
     inkscape:document-units="px"
     inkscape:current-layer="g17454"
     showgrid="false"
     inkscape:window-width="1920"
     inkscape:window-height="996"
     inkscape:window-x="0"
     inkscape:window-y="0"
     inkscape:window-maximized="1"
     inkscape:pagecheckerboard="0" />
  <metadata
     id="metadata3017">
    <rdf:RDF>
      <cc:Work
         rdf:about="">
        <dc:format>image/svg+xml</dc:format>
        <dc:type
           rdf:resource="http://purl.org/dc/dcmitype/StillImage" />
      </cc:Work>
    </rdf:RDF>
  </metadata>
  <g
     inkscape:label="Layer 1"
     inkscape:groupmode="layer"
     id="layer1"
     transform="translate(-343,-521.36218)">
    <g
       id="g17454"
       transform="translate(-453,448.36218)"
       style="display:inline">
      <rect
         transform="scale(-1,1)"
         ry="4.1898012"
         rx="3.9969242"
         y="74.049225"
         x="-860.00073"
         height="19.901556"
         width="62.951553"
         id="rect17456"
         style="color:#000000;display:inline;overflow:visible;visibility:visible;fill:#000000;fill-opacity:1;stroke:#ec1b22;stroke-width:2.09844;stroke-linecap:round;stroke-linejoin:miter;stroke-miterlimit:4;stroke-dasharray:none;stroke-dashoffset:0;stroke-opacity:1;marker:none;enable-background:accumulate" />
      <rect
         transform="scale(-1,1)"
         ry="4"
         rx="4"
         y="74"
         x="-828"
         height="20"
         width="31"
         id="rect17458"
         style="fill:#000000;fill-opacity:1;stroke:#5f5f5f;stroke-width:2;stroke-linecap:round;stroke-linejoin:miter;stroke-miterlimit:4;stroke-opacity:1;stroke-dasharray:none;stroke-dashoffset:0;display:inline" />
      <g
         transform="matrix(-1,0,0,1,1619.1239,-33.986291)"
         id="g17460"
         style="display:inline">
        <path
           style="fill:none;stroke:#ec1b22;stroke-width:1px;stroke-linecap:round;stroke-linejoin:miter;stroke-opacity:1"
           d="m 803.6322,115.48629 0,4.29495"
           id="path17462"
           inkscape:connector-curvature="0" />
        <path
           style="fill:none;stroke:#ec1b22;stroke-width:1px;stroke-linecap:round;stroke-linejoin:miter;stroke-opacity:1;display:inline"
           d="m 806.62805,115.48629 0,4.29495"
           id="path17464"
           inkscape:connector-curvature="0" />
        <path
           style="fill:none;stroke:#ec1b22;stroke-width:1px;stroke-linecap:round;stroke-linejoin:miter;stroke-opacity:1;display:inline"
           d="m 809.6239,115.48629 0,4.29495"
           id="path17466"
           inkscape:connector-curvature="0" />
      </g>
      <g
         style="color:#000000;font-style:normal;font-variant:normal;font-weight:bold;font-stretch:normal;font-size:8.95877px;line-height:125%;font-family:Cantarell;-inkscape-font-specification:'Cantarell Bold';text-indent:0;text-align:start;text-decoration:none;text-decoration-line:none;letter-spacing:normal;word-spacing:normal;text-transform:none;writing-mode:lr-tb;direction:ltr;text-anchor:start;display:inline;overflow:visible;visibility:visible;fill:#ffffff;fill-opacity:1;fill-rule:nonzero;stroke:none;stroke-width:1px;stroke-opacity:1;marker:none;enable-background:accumulate"
         id="text17468"
         transform="matrix(1.4637768,0,0,2.0481298,-390.98387,-87.827968)">
        <path
           d="m 837.28518,80.750726 c 0.63282,6e-6 1.19566,0.123947 1.68852,0.371824 0.49284,0.247888 0.8807,0.609505 1.16359,1.084851 0.28287,0.472439 0.42431,1.022155 0.42431,1.649149 0,0.635748 -0.13853,1.200045 -0.41556,1.692892 -0.27706,0.489934 -0.66638,0.870507 -1.16797,1.141719 -0.5016,0.271213 -1.07756,0.406819 -1.72789,0.406819 -0.42869,0 -0.83551,-0.06562 -1.22045,-0.196848 -0.38495,-0.134148 -0.73053,-0.32808 -1.03674,-0.581795 -0.30329,-0.256631 -0.54534,-0.589085 -0.72615,-0.997363 -0.17789,-0.408276 -0.26684,-0.869045 -0.26683,-1.382311 -10e-6,-0.638658 0.13997,-1.200039 0.41994,-1.684144 0.27996,-0.487011 0.66782,-0.858835 1.16359,-1.115472 0.49576,-0.259541 1.06297,-0.389315 1.70164,-0.389321 m 0.57305,1.089225 c -0.20123,-0.05249 -0.40683,-0.07873 -0.61679,-0.07874 -0.20998,5e-6 -0.41412,0.02625 -0.61242,0.07874 -0.19831,0.04958 -0.38933,0.129779 -0.57305,0.240592 -0.18081,0.107907 -0.33974,0.242055 -0.47681,0.402445 -0.13706,0.160399 -0.24642,0.358705 -0.32808,0.594918 -0.0816,0.233306 -0.12248,0.491395 -0.12248,0.774269 0,0.67366 0.20851,1.214627 0.62554,1.622903 0.41702,0.408278 0.93758,0.612416 1.56166,0.612416 0.25954,0 0.51034,-0.04229 0.7524,-0.126858 0.24496,-0.08457 0.47097,-0.20997 0.67803,-0.376198 0.20705,-0.166226 0.37328,-0.392236 0.49868,-0.678032 0.12539,-0.285792 0.18809,-0.610956 0.1881,-0.975492 -10e-6,-0.297455 -0.0437,-0.568668 -0.13123,-0.813638 -0.0875,-0.247878 -0.20415,-0.453475 -0.34995,-0.61679 -0.14291,-0.163307 -0.31059,-0.301829 -0.50306,-0.415568 -0.18956,-0.11373 -0.38641,-0.195385 -0.59054,-0.244967"
           style="line-height:125%;font-family:Cantarell;-inkscape-font-specification:'Cantarell Bold';fill:#eeeeee;fill-opacity:1;stroke:none;stroke-opacity:1;marker:none"
           id="path18599"
           inkscape:connector-curvature="0" />
        <path
           d="m 843.5362,81.831203 v 1.17917 h 2.94834 v 1.014861 h -2.94834 v 3.00713 h -1.10673 v -6.216022 h 4.31754 v 1.014861 h -3.21081"
           style="line-height:125%;font-family:Cantarell;-inkscape-font-specification:'Cantarell Bold';fill:#eeeeee;fill-opacity:1;stroke:none;stroke-opacity:1;marker:none"
           id="path18601"
           inkscape:connector-curvature="0"
           sodipodi:nodetypes="ccccccccccc" />
        <path
           d="m 849.71285,81.831203 v 1.17917 h 2.94834 v 1.014861 h -2.94834 v 3.00713 h -1.10672 v -6.216022 h 4.31753 v 1.014861 h -3.21081"
           style="line-height:125%;font-family:Cantarell;-inkscape-font-specification:'Cantarell Bold';fill:#eeeeee;fill-opacity:1;stroke:none;stroke-opacity:1;marker:none"
           id="path18603"
           inkscape:connector-curvature="0"
           sodipodi:nodetypes="ccccccccccc" />
      </g>
    </g>
  </g>
</svg>
